<svg width="32" height="32" viewBox="0 0 32 32" fill="none" xmlns="http://www.w3.org/2000/svg">
<rect width="32" height="32" rx="5" fill="#D9D9D9"/>
<path d="M9.70711 6.29289C9.31658 5.90237 8.68342 5.90237 8.29289 6.29289L1.92893 12.6569C1.53841 13.0474 1.53841 13.6805 1.92893 14.0711C2.31946 14.4616 2.95262 14.4616 3.34315 14.0711L9 8.41421L14.6569 14.0711C15.0474 14.4616 15.6805 14.4616 16.0711 14.0711C16.4616 13.6805 16.4616 13.0474 16.0711 12.6569L9.70711 6.29289ZM9 26H10L10 7H9H8L8 26H9Z" fill="black"/>
<path d="M22.2929 26.7071C22.6834 27.0976 23.3166 27.0976 23.7071 26.7071L30.0711 20.3431C30.4616 19.9526 30.4616 19.3195 30.0711 18.9289C29.6805 18.5384 29.0474 18.5384 28.6569 18.9289L23 24.5858L17.3431 18.9289C16.9526 18.5384 16.3195 18.5384 15.9289 18.9289C15.5384 19.3195 15.5384 19.9526 15.9289 20.3431L22.2929 26.7071ZM23 7H22V26H23H24V7H23Z" fill="black"/>
</svg>
