<svg width="96" height="96" viewBox="0 0 96 96" fill="none" xmlns="http://www.w3.org/2000/svg">
<rect x="11" y="15.1997" width="72.4167" height="73.2687" rx="11" transform="rotate(-3.3246 11 15.1997)" fill="#FFE81A"/>
<path fill-rule="evenodd" clip-rule="evenodd" d="M67.8774 9.17059C71.6978 8.31676 75.4758 10.7618 76.2617 14.5967L84.9164 56.8288C84.9667 57.0747 84.9935 57.3226 84.9973 57.5694L67.715 61.4491C64.5417 62.1615 62.5137 65.2724 63.1424 68.4633L65.8565 82.2384C65.5869 82.3704 65.3017 82.4725 65.0057 82.5415L30.0992 90.6834C26.2621 91.5784 22.4426 89.1316 21.6516 85.2717L10.1442 29.1191C9.37779 25.3792 11.7492 21.715 15.4749 20.8823L67.8774 9.17059ZM68.0726 83.14C68.3249 82.9168 68.5593 82.6716 68.7726 82.4063L85.6733 61.3921C86.7937 59.999 87.2346 58.1787 86.8756 56.4273L78.221 14.1952C77.2105 9.26463 72.3531 6.12096 67.4412 7.21874L15.0387 18.9305C10.2485 20.001 7.19954 24.7122 8.18492 29.5206L19.6923 85.6733C20.7093 90.6359 25.6201 93.7819 30.5535 92.6312L65.46 84.4892C66.3734 84.2762 67.2184 83.8535 67.9314 83.2611L68.0903 83.2298L68.0726 83.14ZM67.5892 80.6866L65.1047 68.0767C64.6855 65.9494 66.0375 63.8755 68.153 63.4005L84.3871 59.7561C84.3044 59.8881 84.2136 60.0159 84.1148 60.1387L67.5892 80.6866Z" fill="black"/>
<circle cx="55" cy="8" r="6" fill="black"/>
<path d="M54.5 9.5L42 20" stroke="black" stroke-width="2"/>
<path d="M34.7875 52.1871L31.9853 52.7465L24.607 44.3143L26.5084 53.8397L23.8973 54.3609L21.2204 40.9507L24.1591 40.3641L31.3682 48.6598L29.4995 39.2981L32.1106 38.7769L34.7875 52.1871ZM43.4139 50.853C41.4973 51.2356 39.9284 51.0064 38.7073 50.1654C37.0932 49.1568 36.0458 47.4486 35.5652 45.0407C35.0748 42.5842 35.3861 40.6048 36.4989 39.1024C37.3036 37.8569 38.6642 37.0429 40.5808 36.6604C42.4975 36.2778 44.0663 36.507 45.2875 37.348C46.8858 38.3093 47.9301 40.0181 48.4205 42.4746C48.9011 44.8825 48.5929 46.8613 47.4958 48.411C46.6911 49.6564 45.3305 50.4704 43.4139 50.853ZM45.3422 46.7218C45.8278 45.7734 45.9198 44.5441 45.6183 43.0339C45.3181 41.5297 44.7587 40.4336 43.9402 39.7456C43.1266 39.0502 42.1648 38.8133 41.0548 39.0349C39.9449 39.2565 39.1411 39.8426 38.6434 40.7934C38.1458 41.7442 38.0477 42.9747 38.3491 44.4849C38.6506 45.9952 39.2136 47.0937 40.0382 47.7806C40.8627 48.4674 41.83 48.7 42.9399 48.4785C44.0498 48.2569 44.8506 47.6714 45.3422 46.7218ZM58.9766 33.414L59.4505 35.7886L55.4384 36.5895L57.6413 47.6252L54.8209 48.1881L52.6181 37.1524L48.5877 37.957L48.1137 35.5824L58.9766 33.414ZM71.465 38.7733L64.9509 40.0736L65.6392 43.5217L73.0631 42.0398L73.5443 44.4507L63.382 46.4792L60.7052 33.069L70.5399 31.1058L71.0139 33.4804L63.9176 34.8969L64.486 37.7445L71.0001 36.4442L71.465 38.7733Z" fill="black"/>
<path d="M27.2472 65.3237L26.4234 65.4881L26.5141 58.075L27.3378 57.9106L27.3319 59.0253L27.3594 59.0198C27.57 58.5495 27.874 58.1652 28.2713 57.867C28.6668 57.5596 29.098 57.3593 29.5647 57.2662C29.8942 57.2004 30.1716 57.1831 30.3967 57.2143C30.631 57.2437 30.825 57.3096 30.9787 57.4122C31.1397 57.5038 31.2687 57.6255 31.3657 57.7775C31.4718 57.9276 31.5623 58.0952 31.6373 58.2801C31.8736 57.7475 32.1941 57.3266 32.5988 57.0174C33.0016 56.6991 33.4592 56.4888 33.9718 56.3864C34.4569 56.2896 34.844 56.298 35.1332 56.4116C35.4205 56.516 35.641 56.6909 35.7947 56.9362C35.9465 57.1724 36.0425 57.4626 36.0827 57.8067C36.132 58.149 36.1556 58.506 36.1537 58.8775L36.0888 63.5588L35.265 63.7232L35.3273 58.5999C35.3311 58.3327 35.3083 58.0993 35.2589 57.8998C35.2187 57.6984 35.1392 57.5382 35.0202 57.4192C34.9086 57.2892 34.754 57.2058 34.5563 57.1692C34.366 57.1215 34.1244 57.1269 33.8315 57.1854C33.5294 57.2457 33.2365 57.3755 32.9527 57.5749C32.6671 57.7652 32.419 58.0241 32.2084 58.3517C32.1223 58.4926 32.0454 58.6554 31.9776 58.8403C31.9171 59.0142 31.8676 59.1954 31.8291 59.3839C31.7906 59.5724 31.7612 59.7591 31.741 59.9439C31.7208 60.1288 31.7116 60.2972 31.7134 60.4491L31.668 64.4413L30.8442 64.6057L30.9065 59.4824C30.9103 59.2151 30.8875 58.9817 30.8382 58.7822C30.798 58.5809 30.7184 58.4207 30.5995 58.3016C30.4879 58.1716 30.3332 58.0883 30.1355 58.0516C29.9452 58.004 29.7036 58.0094 29.4107 58.0678C29.1087 58.1281 28.8157 58.258 28.5319 58.4574C28.2463 58.6476 27.9982 58.9065 27.7876 59.2341C27.7015 59.375 27.6246 59.5379 27.5568 59.7227C27.4963 59.8966 27.4468 60.0778 27.4083 60.2663C27.3698 60.4548 27.3405 60.6415 27.3202 60.8264C27.3 61.0113 27.2908 61.1797 27.2926 61.3316L27.2472 65.3237ZM43.1747 57.9329C43.1785 57.5705 43.1319 57.2419 43.035 56.9471C42.9454 56.6414 42.8101 56.3924 42.6289 56.2002C42.446 55.9988 42.2136 55.8596 41.9317 55.7826C41.648 55.6965 41.3231 55.6899 40.957 55.763C40.5909 55.8361 40.266 55.9723 39.9822 56.1717C39.7075 56.3693 39.4695 56.6072 39.268 56.8853C39.0666 57.1635 38.9045 57.4719 38.7817 57.8104C38.659 58.149 38.5765 58.4986 38.5342 58.8592L43.1747 57.9329ZM38.5202 59.5758C38.5146 59.9766 38.5602 60.3482 38.6571 60.6906C38.7522 61.0237 38.8985 61.3038 39.0961 61.5309C39.2919 61.7488 39.538 61.909 39.8345 62.0116C40.1383 62.1033 40.487 62.1098 40.8806 62.0312C41.4206 61.9235 41.8819 61.6838 42.2646 61.3124C42.6565 60.9391 42.9193 60.4679 43.0531 59.8987L43.973 59.7151C43.8667 60.0885 43.7284 60.4444 43.558 60.783C43.395 61.1106 43.1889 61.4134 42.9399 61.6916C42.689 61.9605 42.3924 62.1911 42.0501 62.3831C41.7077 62.5752 41.3123 62.716 40.8638 62.8055C40.2963 62.9188 39.8058 62.9168 39.3921 62.7995C38.9877 62.6803 38.6519 62.4761 38.3847 62.1868C38.1249 61.8865 37.9365 61.5149 37.8195 61.0719C37.7007 60.6197 37.6442 60.1218 37.6499 59.5782C37.6556 59.0346 37.7363 58.5093 37.8921 58.0023C38.0478 57.4953 38.2658 57.0378 38.546 56.6297C38.8336 56.2107 39.1778 55.8612 39.5788 55.5813C39.9871 55.2904 40.4475 55.0938 40.96 54.9915C41.9394 54.796 42.7026 54.9958 43.2497 55.5909C43.8041 56.175 44.0673 57.1361 44.0393 58.4741L38.5202 59.5758Z" fill="black"/>
</svg>
